FFmpeg version SVN-r25716, Copyright (c) 2000-2010 the FFmpeg developers  built on Nov 10 2010 12:23:18 with gcc 4.1.2 20080704 (Red Hat 4.1.2-48)  configuration: --enable-libmp3lame --enable-shared --disable-mmx --arch=x86_64  libavutil     50.33. 0 / 50.33. 0  libavcore      0.12. 1 /  0.12. 1  libavcodec    52.94. 4 / 52.94. 4  libavformat   52.84. 0 / 52.84. 0  libavdevice   52. 2. 2 / 52. 2. 2  libavfilter    1.59. 0 /  1.59. 0  libswscale     0.12. 0 /  0.12. 0Seems stream 0 codec frame rate differs from container frame rate: 1200.00 (1200/1) -> 15.00 (15/1)Input #0, mov,mp4,m4a,3gp,3g2,mj2, from '/RAID10/data/converted_video_files/13400.mov':  Metadata:    major_brand     : qt      minor_version   : 537199360    compatible_brands: qt    Duration: 00:00:22.00, start: 0.000000, bitrate: 4110 kb/s    Stream #0.0(eng): Video: h264, yuv420p, 400x300, 4105 kb/s, 15 fps, 15 tbr, 600 tbn, 1200 tbc[buffer @ 0x1499a5e0] w:400 h:300 pixfmt:yuv420pOutput #0, flv, to '/RAID10/data/converted_video_files/13400.flv':  Metadata:    encoder         : Lavf52.84.0    Stream #0.0(eng): Video: flv, yuv420p, 400x300, q=2-31, 600 kb/s, 1k tbn, 24 tbcStream mapping:  Stream #0.0 -> #0.0Press [q] to stop encodingframe=   31 fps=  0 q=13.2 size=     302kB time=2.04 bitrate=1210.5kbits/s    frame=   71 fps= 69 q=8.3 size=     425kB time=4.71 bitrate= 740.0kbits/s    frame=  127 fps= 83 q=6.7 size=     623kB time=8.46 bitrate= 603.1kbits/s    frame=  167 fps= 82 q=6.3 size=     793kB time=11.12 bitrate= 583.8kbits/s    frame=  215 fps= 84 q=6.6 size=    1005kB time=14.29 bitrate= 576.3kbits/s    frame=  272 fps= 89 q=7.5 size=    1285kB time=18.12 bitrate= 580.9kbits/s    frame=  330 fps= 94 q=8.9 Lsize=    1588kB time=21.96 bitrate= 592.2kbits/s    video:1582kB audio:0kB global headers:0kB muxing overhead 0.338863%